<?xml version="1.0" encoding="utf-8"?>
<!-- Generator: Adobe Illustrator 22.1.0, SVG Export Plug-In . SVG Version: 6.00 Build 0)  -->
<svg version="1.1" id="Layer_1" xmlns="http://www.w3.org/2000/svg" xmlns:xlink="http://www.w3.org/1999/xlink" x="0px" y="0px"
	 viewBox="0 0 500 500" style="enable-background:new 0 0 500 500;" xml:space="preserve">
<style type="text/css">
	.st0{clip-path:url(#SVGID_2_);fill:#00CEC8;}
	.st1{fill:#A3C0FF;}
	.st2{fill:#D8E3FF;}
	.st3{fill-rule:evenodd;clip-rule:evenodd;fill:#F59493;}
	.st4{fill-rule:evenodd;clip-rule:evenodd;fill:#FFFFFF;}
	.st5{opacity:0.31;fill:#2E4787;}
	.st6{fill:#F59493;}
	.st7{fill:#436AE6;}
	.st8{fill:#D67474;}
	.st9{fill:#0F1B61;}
	.st10{fill:#142585;}
	.st11{fill:#4D85FF;}
	.st12{fill:#FFFFFF;}
	.st13{fill:none;stroke:#9EB9DB;stroke-width:2;stroke-linecap:round;stroke-linejoin:round;stroke-miterlimit:10;}
	.st14{fill:none;stroke:#142585;stroke-width:5;stroke-linecap:round;stroke-linejoin:round;stroke-miterlimit:10;}
	.st15{fill:#BFD4FF;}
	.st16{fill:none;stroke:#223A7A;stroke-width:5.4704;stroke-linecap:round;stroke-linejoin:round;stroke-miterlimit:10;}
	.st17{fill:#FBFBFF;}
	
		.st18{fill-rule:evenodd;clip-rule:evenodd;fill:none;stroke:#0065FF;stroke-width:0.9997;stroke-linecap:round;stroke-linejoin:round;stroke-miterlimit:10;}
	.st19{fill:#3570F0;}
	.st20{fill:#2D52B8;}
	.st21{fill:#FFACAB;}
	.st22{fill:#E37B7B;}
	.st23{fill:#1ADBCF;}
	.st24{opacity:0.18;}
	.st25{fill:none;stroke:#FFFFFF;stroke-width:0.9459;stroke-linecap:round;stroke-linejoin:round;stroke-miterlimit:10;}
	.st26{opacity:0.28;fill:#FFFFFF;}
	.st27{clip-path:url(#SVGID_4_);fill:#00CEC8;}
	.st28{clip-path:url(#SVGID_6_);fill:#00CEC8;}
	.st29{clip-path:url(#SVGID_8_);fill:#00CEC8;}
	.st30{fill:#173885;}
	.st31{fill:#385BD6;}
	.st32{fill:#C2D5FF;}
	.st33{fill:#C0CAE3;}
	.st34{fill:#4A74FF;}
	.st35{fill:#122175;}
	.st36{fill:#E6EEFF;}
	.st37{fill:#183180;}
	.st38{fill:#99B2E8;}
	.st39{fill:#8EA3D4;}
	.st40{fill:#C9E4FF;}
	.st41{fill:none;stroke:#E38A78;stroke-width:0.8295;stroke-linecap:round;stroke-linejoin:round;stroke-miterlimit:10;}
	.st42{fill:none;stroke:#9EB9DB;stroke-linecap:round;stroke-linejoin:round;stroke-miterlimit:10;}
	.st43{fill:none;stroke:#FFFFFF;stroke-width:1.5636;stroke-linecap:round;stroke-linejoin:round;stroke-miterlimit:10;}
	.st44{fill:#A3BEF7;}
	.st45{fill:none;stroke:#142585;stroke-width:2;stroke-linecap:round;stroke-linejoin:round;stroke-miterlimit:10;}
	.st46{fill:none;stroke:#223A7A;stroke-width:2.3829;stroke-linecap:round;stroke-linejoin:round;stroke-miterlimit:10;}
	.st47{fill:none;stroke:#142585;stroke-linecap:round;stroke-linejoin:round;stroke-miterlimit:10;}
	.st48{fill:#F0F5FF;}
	.st49{opacity:0.28;}
	.st50{opacity:0.4;fill:#A8B2E5;}
	.st51{opacity:0.31;fill:#476DCF;}
	.st52{fill:url(#SVGID_9_);}
	.st53{fill:#3B6BD9;}
	.st54{opacity:0.27;fill:#FCFEFF;}
	.st55{fill:#2F6AD6;}
	.st56{fill:#2B60C2;}
	.st57{fill:#6094F5;}
	.st58{fill:#4C87F5;}
	.st59{fill:#85B0FF;}
	.st60{fill:#B8D1FF;}
	.st61{fill:#99B8FF;}
	.st62{fill:#356DE6;}
	.st63{fill:#CFDEFF;}
	.st64{fill:#3071FF;}
	.st65{fill:#FFFFFF;stroke:#35519C;stroke-width:0.5746;stroke-miterlimit:10;}
	.st66{fill:#0E2E82;}
	.st67{fill:#FFFFFF;stroke:#35519C;stroke-width:0.5911;stroke-miterlimit:10;}
	.st68{fill:#3E62D4;}
	.st69{fill:none;stroke:#B8CCFF;stroke-width:3.6594;stroke-linecap:round;stroke-linejoin:round;stroke-miterlimit:10;}
	.st70{fill:#3072FF;}
	.st71{fill:none;stroke:#FFFFFF;stroke-width:2.0446;stroke-linecap:round;stroke-linejoin:round;stroke-miterlimit:10;}
	.st72{fill:url(#SVGID_10_);}
	.st73{fill:#ED9845;}
	.st74{fill:#AA5509;}
	.st75{opacity:0.37;fill:#AA5509;}
	.st76{fill:#FFA664;}
	.st77{fill:#D37B33;}
	.st78{opacity:0.18;fill:#FFE0C9;}
	.st79{fill:#EBF5FF;}
	.st80{fill:#EB984E;}
	.st81{fill:#FFAC61;}
	.st82{fill:#214BB8;}
	.st83{fill:#3864D6;}
	.st84{fill:#E1EAF4;}
	.st85{fill:#A1B8ED;}
	.st86{fill:#A6BEF5;}
	.st87{fill:#DBE7FF;}
	.st88{fill:#2F81EC;}
	.st89{fill:none;stroke:#2C4482;stroke-width:1.5916;stroke-linecap:round;stroke-linejoin:round;stroke-miterlimit:10;}
	.st90{fill-rule:evenodd;clip-rule:evenodd;fill:#A1BFFF;}
	.st91{fill-rule:evenodd;clip-rule:evenodd;fill:#F0F5FF;}
	
		.st92{fill-rule:evenodd;clip-rule:evenodd;fill:none;stroke:#223A7A;stroke-width:1.7967;stroke-linecap:round;stroke-miterlimit:10;}
	.st93{fill-rule:evenodd;clip-rule:evenodd;fill:#63FFF5;}
	
		.st94{fill-rule:evenodd;clip-rule:evenodd;fill:none;stroke:#FCFEFF;stroke-width:3.9635;stroke-linecap:round;stroke-linejoin:round;stroke-miterlimit:10;}
	.st95{fill:#2651DE;}
	.st96{fill:#A1BFFF;}
	.st97{fill:#2D69ED;}
	.st98{opacity:0.73;fill:#3171FF;}
	.st99{fill:#223A7A;}
	.st100{fill:none;stroke:#FFFFFF;stroke-width:1.2752;stroke-linecap:round;stroke-linejoin:round;stroke-miterlimit:10;}
	.st101{fill:#63FFF5;}
	
		.st102{fill-rule:evenodd;clip-rule:evenodd;fill:none;stroke:#FFFFFF;stroke-width:1.247;stroke-linecap:round;stroke-miterlimit:10;}
	.st103{fill:none;stroke:#223A7A;stroke-width:2.1314;stroke-linecap:round;stroke-miterlimit:10;}
	.st104{fill:#2B41E3;}
	.st105{fill:#F6F7FA;}
</style>
<g>
	<defs>
		
			<rect id="SVGID_7_" x="0.1" y="0.6" transform="matrix(-1 -4.489266e-11 4.489266e-11 -1 500.2327 501.1058)" width="500" height="500"/>
	</defs>
	<clipPath id="SVGID_2_">
		<use xlink:href="#SVGID_7_"  style="overflow:visible;"/>
	</clipPath>
	<path class="st0" d="M513.3-9.7c0,0-198.6-49.4-247.6,100.6S15.3,356.3,13.3,510.7l488.6,0.8c6.3,0,11.4-6.7,11.4-15V-9.7z"/>
</g>
<path class="st30" d="M454.7,417.7l-127.8-16.5c-4.4-0.6-7.8-4.6-7.4-9l12.7-145.1c0-25,23-28.7,27.4-28.1l88.8,12.9
	c32.7,1.6,29.9,34.9,29.5,39.3l-14.5,139.6C463.1,415.2,459.1,418.3,454.7,417.7z"/>
<path class="st10" d="M368,227.8c0,0,14.8-6.4,10.6-24C374.5,186.1,357.1,201,368,227.8z"/>
<path class="st6" d="M335.6,276.5l-29.9,63.1c-1.1,2.3-4.2,2.9-7.3,1.4l-1.9-0.9c-5-2.5-8-8.1-6.7-12.1l20.5-57.7
	c0,0,8-21,23.1-11.1C341.1,264.1,335.6,276.5,335.6,276.5z"/>
<path class="st31" d="M353.9,370.3l-37.6-5.1c-8.8-0.2-5.9-82.5-5.9-92.9l0,0c0-10.4,15-20,25.1-23.5l24.3-5.2l35.9,12
	c6.7,1.9,14.9,23.6,14.9,34l2.9-8.4C413.5,291.5,362.7,370.5,353.9,370.3z"/>
<polygon class="st32" points="348,462.2 45.1,404 201.2,345.7 497.8,392.4 497.6,402.9 "/>
<path class="st33" d="M333.4,390.7l-75.2-10.5c-5.1-0.8-12.3-0.7-16.2,0.3l-36.6,9.7c-1,0.3-1.7,0.6-2,0.9l-17.2,4.6
	c-3.9,1-2.9,2.6,2.2,3.4l75.4,12.6c5.1,0.8,12.3,0.7,16.2-0.3l50.4-13.9C334.1,396.6,333.4,390.7,333.4,390.7z"/>
<path class="st12" d="M328.8,388.8l-75.4-12.6c-5.1-0.8-12.3-0.7-16.2,0.3l-36.6,9.7c-1,0.3-1.7,0.6-2,0.9l-17.2,4.6
	c-3.9,1-2.9,2.6,2.2,3.4l75.4,12.6c5.1,0.8,12.3,0.7,16.2-0.3l55.9-15.2C334.9,391.1,333.9,389.6,328.8,388.8z"/>
<path class="st6" d="M415.9,289.3l-33.7,61.1c-1.3,2.3-4.4,2.7-7.4,0.9l-1.8-1.1c-4.8-2.8-7.5-8.5-5.9-12.5l25.5-59.8
	c0,0,1.5-20.5,22.3-6.1C417.8,273.8,415.9,289.3,415.9,289.3z"/>
<path class="st6" d="M306.3,339.3c-11,16.9-64.2,33.6-64.2,33.6l-14.7-4.8l65.3-47.9L306.3,339.3z"/>
<path class="st6" d="M364.1,260.2l-0.6-1c-5.4,0.6-24.9,1.4-25.6-4.5c10.1-3.9,6.2-16.5,2.6-35.6c-0.7-5.9,3.2-11.3,8.6-11.9
	l1.8-0.2c5.4-0.6,16.5,4.2,17.2,10.1c3.2,14.7,3.9,28.2,5.9,42.4C374.7,265.5,369.5,259.6,364.1,260.2z"/>
<path class="st8" d="M344.1,240.4l0.4,6.1c4.2-1.9,11.3-6.1,16-15.5l3-4.2L344.1,240.4z"/>
<path class="st34" d="M341.5,244.1l-7.1,4.5c0,0-3.8,12.6,2.5,18l15.9-7.3c0,0-9.4-3.7-8.5-13.6
	C344.4,244.3,342.9,243.4,341.5,244.1z"/>
<path class="st34" d="M376.6,242.4l6.3,6.6c0,0-8.6,16.3-18.4,21.6l-13.3-10.8c0,0,14.8-7.5,20.9-17.4
	C373,241,375.5,241.1,376.6,242.4z"/>
<path class="st10" d="M335.9,171.8c0,0-25.8,1.2-20.5,22.8c4.9,19.9,23.7,12.4,23.7,12.4L335.9,171.8z"/>
<path class="st6" d="M324.3,220.1l-0.5-25.3c-0.4-14.1,9.6-17.4,22.5-17.7l1.1-1.4c12.8-0.3,24,5.5,24.3,19.6l-4.7,26.3
	C367.2,232.9,328.2,260.9,324.3,220.1z"/>
<path class="st35" d="M346.6,211.9c0,1.4,0.9,2.5,1.8,2.4c1,0,1.7-1.2,1.7-2.5c0-1.4-0.9-2.5-1.8-2.4
	C347.3,209.4,346.6,210.5,346.6,211.9z"/>
<path class="st35" d="M329.2,211.7c0,1.3,0.6,2.4,1.2,2.4c0.6,0,1.1-1.1,1-2.4c0-1.3-0.6-2.4-1.2-2.4S329.2,210.4,329.2,211.7z"/>
<path class="st35" d="M352.5,203.3c-1.9-0.3-5.1,0-7,0.2c-2.1,0.2-2.2-2-0.2-2.2c3.5-0.5,4.9-0.2,7.4,0.7
	C353.2,202.1,353.3,203.4,352.5,203.3z"/>
<path class="st35" d="M327.1,203.7c1.3-0.3,3.5-0.1,4.8,0c1.4,0.2,1.3-2,0-2.2c-2.4-0.4-3.3-0.1-5,0.9
	C326.5,202.6,326.6,203.9,327.1,203.7z"/>
<path class="st6" d="M374.8,211.6c-1.1,4.1-4,6.6-6.6,5.6c-2.6-1.1-3.8-5.3-2.7-9.4c1.1-4.1,4-6.6,6.6-5.6
	C374.6,203.2,375.9,207.4,374.8,211.6z"/>
<g>
	<path class="st8" d="M339.8,223.1c-2,0-3-0.8-3.5-1.4c-0.6-0.9-0.6-1.9-0.4-2.6c0.3-0.8,1-4.9,1.3-6.4c0.1-0.3,0.4-0.6,0.7-0.5
		c0.3,0.1,0.6,0.4,0.5,0.7c-0.1,0.6-1,5.5-1.3,6.6c-0.1,0.4-0.1,1,0.2,1.5c0.4,0.6,1.3,0.9,2.5,0.9c0,0,0,0,0,0
		c0.3,0,0.6,0.3,0.6,0.6C340.5,222.9,340.2,223.1,339.8,223.1C339.9,223.1,339.8,223.1,339.8,223.1z"/>
</g>
<path class="st10" d="M380.6,205.2c0,0-51.1,6-46.9-28.7C335.7,159.7,383.3,157.3,380.6,205.2z"/>
<path class="st12" d="M332.9,226.8l12.8,0.1c-1.7,5.6-5.4,6-7.9,5.8C334,232.4,332.9,226.8,332.9,226.8z"/>
<path class="st36" d="M317.3,253.1c0,0-23.6,2.9-30,71.1l-32,18.9c9.8,6,14,14,8.8,25.3c0,0,36.7-14.8,42.2-24.2
	c5.5-9.5,16.3-46.4,16.3-46.4L317.3,253.1z"/>
<path class="st36" d="M317.3,253.1c0,0,5.8-0.9,17.1-4.4c-4.2,6.8-19,85.4-16.9,115.7l-15-2.8l6.2-78.7L317.3,253.1z"/>
<path class="st36" d="M384,249.1c0,0-16.8,3.4-26.9,49.9c-7,32.2-5.6,70.6-5.6,70.6l53.3,8.1c0,0,14.9-73,13.6-95.6
	c0-0.4-0.1-0.8-0.1-1.2c-1.2-13.8-3.2-17.8-20.6-25.3L384,249.1z"/>
<path class="st37" d="M351.7,266.7c0,1.2-1,2.2-2.2,2.2c-1.2,0-2.2-1-2.2-2.2c0-1.2,1-2.2,2.2-2.2
	C350.7,264.5,351.7,265.5,351.7,266.7z"/>
<path class="st37" d="M349.5,274.4c0,1.2-1,2.2-2.2,2.2c-1.2,0-2.2-1-2.2-2.2c0-1.2,1-2.2,2.2-2.2
	C348.5,272.2,349.5,273.2,349.5,274.4z"/>
<polygon class="st38" points="45.1,404 47.1,500.8 347.9,501 348,462.2 "/>
<path class="st39" d="M347.9,501l138.9-0.2c6.1,0,11-4.9,11-11v-86.4L348,462.2L347.9,501z"/>
<path class="st40" d="M323.7,364.4c0,0-4.2,4.8-1.3,10c3.9,7.1,7.2,13.9,14.2,11.8c7.1-2.2-3.1-21.8-3.1-21.8L323.7,364.4z"/>
<g>
	<path class="st6" d="M310.5,370.8l-22,3.4c-0.7,0.1-1.4,0.4-1.9,0.8c-2.4,1.8-9.3,7.3-16.7,13.1c-0.9,0.7-1.5,4.7,2.2,2.6
		c0,0-2.5,2.1-1.2,5.7c0.2,0.4,0.3,0.9,0.5,1.3c0.9,2.5,3.6,3.8,5.8,2.7c6.7-3.3,19.8-9.6,22.5-9.4c8.3,0.7,15.4-4.5,16.7-5.4
		c0,0,4.3-4.6,2.3-9.7l-0.1-0.3C317.1,372.2,313.7,370.2,310.5,370.8z"/>
	<line class="st41" x1="290.3" y1="378.2" x2="272" y2="390.7"/>
	<line class="st41" x1="289.5" y1="384.3" x2="271.1" y2="396.8"/>
	<line class="st41" x1="290.6" y1="389.3" x2="273.8" y2="399.3"/>
</g>
<path class="st6" d="M381,363.6c-14.6,14.5-67.9,23.1-67.9,23.1l-9.5-12.4l57.2-21.5L381,363.6z"/>
<path class="st36" d="M402.9,259.9l-30.5,81.8l-48.7,22.7c0,0,18.3,3.1,13,21.8c0,0,48.2-17,53.5-21.3c5.3-4.3,22.8-53.3,22.8-53.3
	s8.6-26.9,5.4-36.5C418.4,275.2,416.4,262.9,402.9,259.9z"/>
<polyline class="st42" points="385.5,297.1 385.5,301.5 372.6,340.7 323.7,364.4 "/>
<polyline class="st42" points="303.7,346.6 307.3,296.9 304.7,289.2 "/>
<g>
	<path class="st12" d="M265.8,412.2l-83.7-13.5c-5.6-0.9-11.9-6.7-14.1-12.9l-20.4-58.9c-2.1-6.2,0.7-10.6,6.3-9.6l83.7,13.5
		c5.6,0.9,11.9,6.7,14.1,12.9l20.4,58.9C274.2,408.7,271.4,413.1,265.8,412.2z"/>
	<path class="st2" d="M261.6,411.5L178,398c-5.6-0.9-11.9-6.7-14.1-12.9l-20.4-58.9c-2.1-6.2,0.7-10.6,6.3-9.6l83.7,13.5
		c5.6,0.9,11.9,6.7,14.1,12.9l20.4,58.9C270.1,408.1,267.3,412.4,261.6,411.5z"/>
	<path class="st43" d="M209.3,364.6c1.4,4.9-1.1,8.3-5.6,7.6c-4.5-0.7-9.3-5.3-10.7-10.2c-1.4-4.9,1.1-8.3,5.6-7.6
		C203.1,355.1,207.9,359.7,209.3,364.6z"/>
</g>
<polygon class="st38" points="302.5,425.5 361,398.7 416.9,407.3 369.8,436.6 "/>
<path class="st42" d="M287.3,324.3c0,0,3.8-0.5,4.4,0.9"/>
<path class="st42" d="M371.9,341.3c0,0,3.8-0.5,4.4,0.9"/>
<polygon class="st44" points="302.5,423.4 361,396.6 416.9,405.1 369.8,434.5 "/>
<polygon class="st12" points="302.5,420.7 361,393.9 416.9,402.5 369.8,431.8 "/>
<g>
	<g>
		<path class="st45" d="M372.8,241.4c0,0,14.1,0.9,12,11.7c-0.6,3.2-0.7,6.2-1.7,9.3c-2,6.2-1.4,12.7-2.3,19.1"/>
	</g>
	<g>
		<path class="st45" d="M382.9,259.9c-5.3,5.1-11.3,7.5-12.3,15.8"/>
	</g>
	<path class="st33" d="M377.5,283.8l-11.8,19.4c-2.7,4.1-4.6,6.2-9.8,3.2c-0.4,0.8-0.8,1.5-1.1,2.3l0.8,0.5
		c3.8,2.3,8.8,1.1,11.1-2.7l14.1-23.2C383.2,279.4,379.8,280.1,377.5,283.8z"/>
	<path class="st9" d="M353.5,304.9l2.9,1.3c0.8,0.4,1.2,1.4,0.8,2.2l-0.2,0.4c-0.4,0.8-1.4,1.2-2.2,0.8l-2.9-1.3
		c-0.8-0.4-1.2-1.4-0.8-2.2l0.2-0.4C351.7,304.9,352.6,304.5,353.5,304.9z"/>
	<path class="st33" d="M370.7,280.2l-2.5,22.5c-0.4,4.9-0.2,7.7,5.8,8.5c-0.2,0.8-0.3,1.7-0.5,2.5l-0.9-0.1
		c-4.4-0.5-7.7-4.5-7.2-8.9l3-27C368.9,273.2,371.2,275.8,370.7,280.2z"/>
	<path class="st9" d="M376.9,311.5l-3.1-0.7c-0.9-0.2-1.8,0.4-2,1.2l-0.1,0.5c-0.2,0.9,0.4,1.8,1.2,2l3.1,0.7c0.9,0.2,1.8-0.4,2-1.2
		l0.1-0.5C378.4,312.6,377.8,311.7,376.9,311.5z"/>
	<path class="st9" d="M379.4,282.6l1.5,0.6c0.8,0.3,1.7-0.1,2-0.8l0.3-0.8c0.3-0.8-0.1-1.7-0.8-2L381,279c-0.8-0.3-1.7,0.1-2,0.8
		l-0.3,0.8C378.3,281.4,378.7,282.3,379.4,282.6z"/>
	<path class="st9" d="M368.8,278.4l1.6,0.3c0.8,0.2,1.6-0.4,1.8-1.2l0.2-0.9c0.2-0.8-0.4-1.6-1.2-1.8l-1.6-0.3
		c-0.8-0.2-1.6,0.4-1.8,1.2l-0.2,0.9C367.5,277.4,368,278.2,368.8,278.4z"/>
</g>
<g>
	<g>
		<path class="st45" d="M321.5,292.8c0,1.4,2.6,1.6,2.5,0.2l0,0c-0.2-9.4-1.3-18.8-0.8-28.2c0.3-6.2,1.3-13.6,9-15.7"/>
	</g>
	<g>
		<path class="st9" d="M317.9,294.5c-1.1,3.6,1,7.3,4.5,8.4c3.6,1.1,7.3-1,8.4-4.5c1.1-3.6-1-7.3-4.5-8.4
			C322.7,288.9,318.9,290.9,317.9,294.5z"/>
		<path class="st17" d="M319.4,293.5c-0.8,2.7,0.7,5.6,3.5,6.4c2.7,0.8,5.6-0.7,6.4-3.5c0.8-2.7-0.7-5.6-3.5-6.4
			C323.1,289.2,320.2,290.8,319.4,293.5z"/>
		<path class="st9" d="M319.5,291.4c-0.8,2.7,0.7,5.6,3.5,6.4c2.7,0.8,5.6-0.7,6.4-3.5c0.8-2.7-0.7-5.6-3.5-6.4
			C323.2,287.1,320.3,288.7,319.5,291.4z"/>
	</g>
</g>
<path class="st10" d="M383.7,411.7l-29.7,6.8c-0.3,0.1-0.6,0.1-0.9,0l-2.5-0.3c-0.3,0-0.4-0.5-0.2-0.7l2.1-1.4
	c0.2-0.2,0.5-0.3,0.8-0.3l29.7-6.8c0.7-0.2,1.5,0.3,1.7,1l0,0C385,410.8,384.5,411.5,383.7,411.7z"/>
<path class="st47" d="M331,218.8h-5c-1.8,0-3.3-1.5-3.3-3.3v-0.8c0-1.8,1.5-3.3,3.3-3.3h5c1.1,0,2.1,0.5,2.7,1.4
	c0.4,0.6,0.7,1.2,0.7,2v0.8C334.4,217.2,332.8,218.8,331,218.8z"/>
<path class="st47" d="M350.4,218.8h-6.8c-2,0-3.7-1.7-3.7-3.7v-0.1c0-2,1.7-3.7,3.7-3.7h6.8c2,0,3.7,1.7,3.7,3.7v0.1
	C354.1,217.1,352.4,218.8,350.4,218.8z"/>
<path class="st47" d="M333.8,212.3c0,0,3-3.1,7.1,0"/>
<line class="st47" x1="368.4" y1="205.8" x2="353.1" y2="211.9"/>
<ellipse transform="matrix(0.8092 -0.5875 0.5875 0.8092 -175.7887 185.2988)" class="st23" cx="197.4" cy="363.3" rx="13" ry="19.1"/>
<path class="st48" d="M200.3,372.6L200.3,372.6c-1.4-0.2-2.9-1.7-3.4-3.2l-4.4-13.1c-0.5-1.5,0.2-2.6,1.6-2.3l0,0
	c1.4,0.2,2.9,1.7,3.4,3.2l4.4,13.1C202.4,371.8,201.7,372.9,200.3,372.6z"/>
<path class="st48" d="M188.8,361.8L188.8,361.8c-0.5-1.5,0.2-2.6,1.6-2.3l11.7,2.1c1.4,0.2,2.9,1.7,3.4,3.2l0,0
	c0.5,1.5-0.2,2.6-1.6,2.3l-11.7-2.1C190.9,364.8,189.4,363.3,188.8,361.8z"/>
<g class="st49">
	<path class="st12" d="M416.2,162.8c0,1.4-1.1,2.6-2.6,2.6c-1.4,0-2.6-1.1-2.6-2.6c0-1.4,1.1-2.6,2.6-2.6
		C415.1,160.3,416.2,161.4,416.2,162.8z"/>
	<path class="st12" d="M443.1,162.8c0,1.4-1.1,2.6-2.6,2.6c-1.4,0-2.6-1.1-2.6-2.6c0-1.4,1.1-2.6,2.6-2.6
		C441.9,160.3,443.1,161.4,443.1,162.8z"/>
	<path class="st12" d="M469.9,162.8c0,1.4-1.1,2.6-2.6,2.6c-1.4,0-2.6-1.1-2.6-2.6c0-1.4,1.1-2.6,2.6-2.6
		C468.8,160.3,469.9,161.4,469.9,162.8z"/>
	<path class="st12" d="M416.2,182.6c0,1.4-1.1,2.6-2.6,2.6c-1.4,0-2.6-1.1-2.6-2.6c0-1.4,1.1-2.6,2.6-2.6
		C415.1,180,416.2,181.2,416.2,182.6z"/>
	<path class="st12" d="M443.1,182.6c0,1.4-1.1,2.6-2.6,2.6c-1.4,0-2.6-1.1-2.6-2.6c0-1.4,1.1-2.6,2.6-2.6
		C441.9,180,443.1,181.2,443.1,182.6z"/>
	<path class="st12" d="M469.9,182.6c0,1.4-1.1,2.6-2.6,2.6c-1.4,0-2.6-1.1-2.6-2.6c0-1.4,1.1-2.6,2.6-2.6
		C468.8,180,469.9,181.2,469.9,182.6z"/>
	<path class="st12" d="M416.2,202.4c0,1.4-1.1,2.6-2.6,2.6c-1.4,0-2.6-1.1-2.6-2.6s1.1-2.6,2.6-2.6
		C415.1,199.8,416.2,201,416.2,202.4z"/>
	<path class="st12" d="M443.1,202.4c0,1.4-1.1,2.6-2.6,2.6c-1.4,0-2.6-1.1-2.6-2.6s1.1-2.6,2.6-2.6
		C441.9,199.8,443.1,201,443.1,202.4z"/>
	<path class="st12" d="M469.9,202.4c0,1.4-1.1,2.6-2.6,2.6c-1.4,0-2.6-1.1-2.6-2.6s1.1-2.6,2.6-2.6
		C468.8,199.8,469.9,201,469.9,202.4z"/>
</g>
<path class="st25" d="M233,267.8c3.1,0,36.2,0,36.2,0"/>
<path class="st25" d="M425,116.1c3.1,0,36.2,0,36.2,0"/>
</svg>
