<?xml version="1.0" encoding="utf-8" standalone="yes"?><!-- Generator: Adobe Illustrator 22.1.0, SVG Export Plug-In . SVG Version: 6.00 Build 0)  --><svg xmlns="http://www.w3.org/2000/svg" xmlns:xlink="http://www.w3.org/1999/xlink" version="1.1" id="Layer_1" x="0px" y="0px" viewBox="0 0 500 500" style="enable-background: new 0 0 500 500;zoom: 8;" xml:space="preserve"><style type="text/css">
        .st0{clip-path:url(#SVGID_2_);fill:#00CEC8;}
        .st1{fill:#A3C0FF;}
        .st2{fill:#D8E3FF;}
        .st3{fill-rule:evenodd;clip-rule:evenodd;fill:#F59493;}
        .st4{fill-rule:evenodd;clip-rule:evenodd;fill:#FFFFFF;}
        .st5{opacity:0.31;fill:#2E4787;}
        .st6{fill:#F59493;}
        .st7{fill:#436AE6;}
        .st8{fill:#D67474;}
        .st9{fill:#0F1B61;}
        .st10{fill:#142585;}
        .st11{fill:#4D85FF;}
        .st12{fill:#FFFFFF;}
        .st13{fill:none;stroke:#9EB9DB;stroke-width:2;stroke-linecap:round;stroke-linejoin:round;stroke-miterlimit:10;}
        .st14{fill:none;stroke:#142585;stroke-width:5;stroke-linecap:round;stroke-linejoin:round;stroke-miterlimit:10;}
        .st15{fill:#BFD4FF;}
        .st16{fill:none;stroke:#223A7A;stroke-width:5.4704;stroke-linecap:round;stroke-linejoin:round;stroke-miterlimit:10;}
        .st17{fill:#FBFBFF;}
        
                .st18{fill-rule:evenodd;clip-rule:evenodd;fill:none;stroke:#0065FF;stroke-width:0.9997;stroke-linecap:round;stroke-linejoin:round;stroke-miterlimit:10;}
        .st19{fill:#3570F0;}
        .st20{fill:#2D52B8;}
        .st21{fill:#FFACAB;}
        .st22{fill:#E37B7B;}
        .st23{fill:#1ADBCF;}
        .st24{opacity:0.18;}
        .st25{fill:none;stroke:#FFFFFF;stroke-width:0.9459;stroke-linecap:round;stroke-linejoin:round;stroke-miterlimit:10;}
        .st26{opacity:0.28;fill:#FFFFFF;}
        .st27{clip-path:url(#SVGID_4_);fill:#00CEC8;}
        .st28{clip-path:url(#SVGID_6_);fill:#00CEC8;}
        .st29{clip-path:url(#SVGID_8_);fill:#00CEC8;}
        .st30{fill:#173885;}
        .st31{fill:#385BD6;}
        .st32{fill:#C2D5FF;}
        .st33{fill:#C0CAE3;}
        .st34{fill:#4A74FF;}
        .st35{fill:#122175;}
        .st36{fill:#E6EEFF;}
        .st37{fill:#183180;}
        .st38{fill:#99B2E8;}
        .st39{fill:#8EA3D4;}
        .st40{fill:#C9E4FF;}
        .st41{fill:none;stroke:#E38A78;stroke-width:0.8295;stroke-linecap:round;stroke-linejoin:round;stroke-miterlimit:10;}
        .st42{fill:none;stroke:#9EB9DB;stroke-linecap:round;stroke-linejoin:round;stroke-miterlimit:10;}
        .st43{fill:none;stroke:#FFFFFF;stroke-width:1.5636;stroke-linecap:round;stroke-linejoin:round;stroke-miterlimit:10;}
        .st44{fill:#A3BEF7;}
        .st45{fill:none;stroke:#142585;stroke-width:2;stroke-linecap:round;stroke-linejoin:round;stroke-miterlimit:10;}
        .st46{fill:none;stroke:#223A7A;stroke-width:2.3829;stroke-linecap:round;stroke-linejoin:round;stroke-miterlimit:10;}
        .st47{fill:none;stroke:#142585;stroke-linecap:round;stroke-linejoin:round;stroke-miterlimit:10;}
        .st48{fill:#F0F5FF;}
        .st49{opacity:0.28;}
        .st50{opacity:0.4;fill:#A8B2E5;}
        .st51{opacity:0.31;fill:#476DCF;}
        .st52{fill:url(#SVGID_9_);}
        .st53{fill:#3B6BD9;}
        .st54{opacity:0.27;fill:#FCFEFF;}
        .st55{fill:#2F6AD6;}
        .st56{fill:#2B60C2;}
        .st57{fill:#6094F5;}
        .st58{fill:#4C87F5;}
        .st59{fill:#85B0FF;}
        .st60{fill:#B8D1FF;}
        .st61{fill:#99B8FF;}
        .st62{fill:#356DE6;}
        .st63{fill:#CFDEFF;}
        .st64{fill:#3071FF;}
        .st65{fill:#FFFFFF;stroke:#35519C;stroke-width:0.5746;stroke-miterlimit:10;}
        .st66{fill:#0E2E82;}
        .st67{fill:#FFFFFF;stroke:#35519C;stroke-width:0.5911;stroke-miterlimit:10;}
        .st68{fill:#3E62D4;}
        .st69{fill:none;stroke:#B8CCFF;stroke-width:3.6594;stroke-linecap:round;stroke-linejoin:round;stroke-miterlimit:10;}
        .st70{fill:#3072FF;}
        .st71{fill:none;stroke:#FFFFFF;stroke-width:2.0446;stroke-linecap:round;stroke-linejoin:round;stroke-miterlimit:10;}
        .st72{fill:url(#SVGID_10_);}
        .st73{fill:#ED9845;}
        .st74{fill:#AA5509;}
        .st75{opacity:0.37;fill:#AA5509;}
        .st76{fill:#FFA664;}
        .st77{fill:#D37B33;}
        .st78{opacity:0.18;fill:#FFE0C9;}
        .st79{fill:#EBF5FF;}
        .st80{fill:#EB984E;}
        .st81{fill:#FFAC61;}
        .st82{fill:#214BB8;}
        .st83{fill:#3864D6;}
        .st84{fill:#E1EAF4;}
        .st85{fill:#A1B8ED;}
        .st86{fill:#A6BEF5;}
        .st87{fill:#DBE7FF;}
        .st88{fill:#2F81EC;}
        .st89{fill:none;stroke:#2C4482;stroke-width:1.5916;stroke-linecap:round;stroke-linejoin:round;stroke-miterlimit:10;}
        .st90{fill-rule:evenodd;clip-rule:evenodd;fill:#A1BFFF;}
        .st91{fill-rule:evenodd;clip-rule:evenodd;fill:#F0F5FF;}
        
                .st92{fill-rule:evenodd;clip-rule:evenodd;fill:none;stroke:#223A7A;stroke-width:1.7967;stroke-linecap:round;stroke-miterlimit:10;}
        .st93{fill-rule:evenodd;clip-rule:evenodd;fill:#63FFF5;}
        
                .st94{fill-rule:evenodd;clip-rule:evenodd;fill:none;stroke:#FCFEFF;stroke-width:3.9635;stroke-linecap:round;stroke-linejoin:round;stroke-miterlimit:10;}
        .st95{fill:#2651DE;}
        .st96{fill:#A1BFFF;}
        .st97{fill:#2D69ED;}
        .st98{opacity:0.73;fill:#3171FF;}
        .st99{fill:#223A7A;}
        .st100{fill:none;stroke:#FFFFFF;stroke-width:1.2752;stroke-linecap:round;stroke-linejoin:round;stroke-miterlimit:10;}
        .st101{fill:#63FFF5;}
        
                .st102{fill-rule:evenodd;clip-rule:evenodd;fill:none;stroke:#FFFFFF;stroke-width:1.247;stroke-linecap:round;stroke-miterlimit:10;}
        .st103{fill:none;stroke:#223A7A;stroke-width:2.1314;stroke-linecap:round;stroke-miterlimit:10;}
        .st104{fill:#2B41E3;}
        .st105{fill:#F6F7FA;}
</style><g><defs><rect id="SVGID_1_" x="1.4" y="0" width="500" height="500"></rect></defs><clipPath id="SVGID_2_"><use transform="matrix(1,0,0,1,0,0)" xlink:href="#SVGID_1_" style="overflow: visible"></use></clipPath><path class="st0" d="M-11.8,-10.3 c0,0 198.6,-49.4 247.6,100.6 s250.3,265.4 252.4,419.8 l-488.6,0.8 c-6.3,0 -11.4,-6.7 -11.4,-15 V-10.3 "></path></g><g><path class="st1" d="M 365.7 159.6 c 0 1 -0.8 1.8 -1.8 1.8 c -1 0 -1.8 -0.8 -1.8 -1.8 c 0 -1 0.8 -1.8 1.8 -1.8 C 364.9 157.8 365.7 158.6 365.7 159.6 z"></path><path class="st1" d="M 384.5 159.6 c 0 1 -0.8 1.8 -1.8 1.8 c -1 0 -1.8 -0.8 -1.8 -1.8 c 0 -1 0.8 -1.8 1.8 -1.8 C 383.7 157.8 384.5 158.6 384.5 159.6 z"></path><path class="st1" d="M 403.3 159.6 c 0 1 -0.8 1.8 -1.8 1.8 c -1 0 -1.8 -0.8 -1.8 -1.8 c 0 -1 0.8 -1.8 1.8 -1.8 C 402.5 157.8 403.3 158.6 403.3 159.6 z"></path><circle class="st1" cx="420.3" cy="159.6" r="1.8"></circle><path class="st1" d="M 440.9 159.6 c 0 1 -0.8 1.8 -1.8 1.8 c -1 0 -1.8 -0.8 -1.8 -1.8 c 0 -1 0.8 -1.8 1.8 -1.8 C 440.1 157.8 440.9 158.6 440.9 159.6 z"></path><path class="st1" d="M 365.7 178.8 c 0 1 -0.8 1.8 -1.8 1.8 c -1 0 -1.8 -0.8 -1.8 -1.8 c 0 -1 0.8 -1.8 1.8 -1.8 C 364.9 176.9 365.7 177.8 365.7 178.8 z"></path><path class="st1" d="M 403.3 178.8 c 0 1 -0.8 1.8 -1.8 1.8 c -1 0 -1.8 -0.8 -1.8 -1.8 c 0 -1 0.8 -1.8 1.8 -1.8 C 402.5 176.9 403.3 177.8 403.3 178.8 z"></path><path class="st1" d="M 422.1 178.8 c 0 1 -0.8 1.8 -1.8 1.8 s -1.8 -0.8 -1.8 -1.8 c 0 -1 0.8 -1.8 1.8 -1.8 S 422.1 177.8 422.1 178.8 z"></path><path class="st1" d="M 440.9 178.8 c 0 1 -0.8 1.8 -1.8 1.8 c -1 0 -1.8 -0.8 -1.8 -1.8 c 0 -1 0.8 -1.8 1.8 -1.8 C 440.1 176.9 440.9 177.8 440.9 178.8 z"></path><path class="st1" d="M 365.7 198 c 0 1 -0.8 1.8 -1.8 1.8 c -1 0 -1.8 -0.8 -1.8 -1.8 c 0 -1 0.8 -1.8 1.8 -1.8 C 364.9 196.1 365.7 197 365.7 198 z"></path><path class="st1" d="M 384.5 198 c 0 1 -0.8 1.8 -1.8 1.8 c -1 0 -1.8 -0.8 -1.8 -1.8 c 0 -1 0.8 -1.8 1.8 -1.8 C 383.7 196.1 384.5 197 384.5 198 z"></path><path class="st1" d="M 403.3 198 c 0 1 -0.8 1.8 -1.8 1.8 c -1 0 -1.8 -0.8 -1.8 -1.8 c 0 -1 0.8 -1.8 1.8 -1.8 C 402.5 196.1 403.3 197 403.3 198 z"></path><path class="st1" d="M 422.1 198 c 0 1 -0.8 1.8 -1.8 1.8 s -1.8 -0.8 -1.8 -1.8 c 0 -1 0.8 -1.8 1.8 -1.8 S 422.1 197 422.1 198 z"></path><path class="st1" d="M 440.9 198 c 0 1 -0.8 1.8 -1.8 1.8 c -1 0 -1.8 -0.8 -1.8 -1.8 c 0 -1 0.8 -1.8 1.8 -1.8 C 440.1 196.1 440.9 197 440.9 198 z"></path><path class="st1" d="M 365.7 217.1 c 0 1 -0.8 1.8 -1.8 1.8 c -1 0 -1.8 -0.8 -1.8 -1.8 c 0 -1 0.8 -1.8 1.8 -1.8 C 364.9 215.3 365.7 216.1 365.7 217.1 z"></path><path class="st1" d="M 384.5 217.1 c 0 1 -0.8 1.8 -1.8 1.8 c -1 0 -1.8 -0.8 -1.8 -1.8 c 0 -1 0.8 -1.8 1.8 -1.8 C 383.7 215.3 384.5 216.1 384.5 217.1 z"></path><path class="st1" d="M 403.3 217.1 c 0 1 -0.8 1.8 -1.8 1.8 c -1 0 -1.8 -0.8 -1.8 -1.8 c 0 -1 0.8 -1.8 1.8 -1.8 C 402.5 215.3 403.3 216.1 403.3 217.1 z"></path><circle class="st1" cx="420.3" cy="217.1" r="1.8"></circle><path class="st1" d="M 440.9 217.1 c 0 1 -0.8 1.8 -1.8 1.8 c -1 0 -1.8 -0.8 -1.8 -1.8 c 0 -1 0.8 -1.8 1.8 -1.8 C 440.1 215.3 440.9 216.1 440.9 217.1 z"></path><path class="st1" d="M 384.5 236.3 c 0 1 -0.8 1.8 -1.8 1.8 c -1 0 -1.8 -0.8 -1.8 -1.8 c 0 -1 0.8 -1.8 1.8 -1.8 C 383.7 234.5 384.5 235.3 384.5 236.3 z"></path><path class="st1" d="M 403.3 236.3 c 0 1 -0.8 1.8 -1.8 1.8 c -1 0 -1.8 -0.8 -1.8 -1.8 c 0 -1 0.8 -1.8 1.8 -1.8 C 402.5 234.5 403.3 235.3 403.3 236.3 z"></path><path class="st1" d="M 422.1 236.3 c 0 1 -0.8 1.8 -1.8 1.8 s -1.8 -0.8 -1.8 -1.8 c 0 -1 0.8 -1.8 1.8 -1.8 S 422.1 235.3 422.1 236.3 z"></path><path class="st1" d="M 440.9 236.3 c 0 1 -0.8 1.8 -1.8 1.8 c -1 0 -1.8 -0.8 -1.8 -1.8 c 0 -1 0.8 -1.8 1.8 -1.8 C 440.1 234.5 440.9 235.3 440.9 236.3 z"></path></g><path class="st3" d="M 250.2 468.5 l 53 -100.6 l 22.9 13.7 c 0 0 -33.3 110.2 -43.3 114.9 C 272.8 501.2 239.2 507.3 250.2 468.5 z"></path><path class="st4" d="M 295.2 381 l 30.5 26.9 c 0 0 -25.4 69.9 -45.3 94 l -25.7 0.1 l -13.8 -18.4 L 295.2 381 z"></path><path class="st5" d="M 219.6 489.5 c 0 -24.4 -0.7 -81.5 -1.8 -94.2 c -2.9 -33.1 -36.5 -47.3 -36.5 -47.3 l -30.5 -11.9 c -0.1 -0.2 -0.2 -0.4 -0.3 -0.6 l 1 -0.6 l -2 -1.4 c -3.5 -6.4 -9 -11.4 -18 -12.9 l 0.1 0.2 L 126 317 c 0.3 2.3 0.2 4.4 -0.3 6.2 c -0.8 -4.6 -1 -9.7 -0.9 -15.2 c 9.6 -6.9 19.2 -16.1 19.2 -30.2 V 276 c 4.1 0.6 8.5 -3.4 10.4 -9.9 c 2.1 -7.2 0.1 -14.6 -4.3 -16.6 c -1.4 -0.6 -2.8 -0.6 -4.3 -0.1 c 0.6 -6.7 0.9 -14.8 -0.4 -21.8 c 1 -0.3 1.8 -1.1 1.9 -2.3 c 0.7 -10.1 -0.7 -43.1 -47.1 -43.9 c -47.9 -0.8 -45.5 35.2 -44.1 44.2 c 0.2 1.1 1.2 1.9 2.3 1.8 c -1.4 7.3 -1.1 15.8 -0.4 22.6 c -1.9 -1.2 -3.9 -1.5 -5.8 -0.6 c -4.4 2 -6.4 9.4 -4.3 16.6 c 2.1 7.2 7.3 11.5 11.8 9.5 c 0.1 0 0.1 -0.1 0.2 -0.1 v 0.7 c 0 13.4 8.3 23 17.2 30.1 c 0 4.7 -0.2 9.2 -0.7 13.2 c -0.2 -1 -0.3 -2.1 -0.2 -3.2 l -3.1 2.3 c 0 0 -6.4 2.7 -8.4 6.3 l -10 7.4 v 0 l -2.4 1.7 l -24.3 11 c -10.5 3.4 -22.7 8.2 -30.6 14.1 v 132 c 0 6.1 5 11.1 11.1 11.1 l 197.9 -0.2 C 210.3 498.8 214.4 495.1 219.6 489.5 z"></path><path class="st6" d="M 133.5 356.6 h 3.8 c 11.6 0 35.9 -9.5 35.9 -18.8 c -22.4 -4.3 -17.7 -34.6 -14.8 -65.1 c 0 -9.4 -9.5 -17.1 -21.2 -17.1 h -3.8 c -11.6 0 -25.5 10.9 -25.5 20.3 c -0.7 28.2 5.3 52.7 -15.1 61.8 C 92.9 347 121.9 356.6 133.5 356.6 z"></path><path class="st7" d="M 46.9 501.8 c 0.6 -68.8 4.1 -149.9 4.1 -149.9 L 85.6 328 L 98 341.2 l 53.4 -13.2 c 0 0 52 10 63.6 17.6 c 11.6 7.6 10.8 75.3 10.8 75.3 s -14.6 54.2 -16.1 81.1 L 46.9 501.8 z"></path><path class="st8" d="M 157.2 293 c 0 19 -42.8 18.9 -50.9 29 c 1.9 -8.1 2 -19.6 1.7 -31.7 L 157.2 293 z"></path><path class="st6" d="M 146 310.3 c 11.3 -7.7 29.1 -17.7 29.1 -37 l 0 -41.6 c 0 -24.7 -18.4 -45 -41 -45 h -2.3 c -22.5 0 -41 20.2 -41 45 v 40.1 c 0 19.4 17.5 30.9 28.7 38.4 C 122.7 312.3 142.8 312.5 146 310.3 z"></path><path class="st9" d="M 117.3 253.9 c 0 2.4 -1.4 4.3 -3.1 4.3 s -3.1 -1.9 -3.1 -4.3 c 0 -2.4 1.4 -4.3 3.1 -4.3 C 115.9 249.6 117.3 251.6 117.3 253.9 z"></path><path class="st9" d="M 154.7 253.9 c 0 2.4 -1.4 4.3 -3.1 4.3 s -3.1 -1.9 -3.1 -4.3 c 0 -2.4 1.4 -4.3 3.1 -4.3 C 153.3 249.6 154.7 251.6 154.7 253.9 z"></path><path class="st10" d="M 104.9 239.6 c 3.3 -0.6 9.5 -0.2 12.8 0 c 7.4 0.6 6.7 -7.2 0.3 -7.2 c -6.2 0 -8.6 -0.4 -12.9 1.5 C 100 236.4 103.6 239.9 104.9 239.6 z"></path><path class="st10" d="M 161.8 239.6 c -3.3 -0.6 -9.5 -0.2 -12.8 0 c -7.4 0.6 -6.7 -7.2 -0.3 -7.2 c 6.2 0 8.6 -0.4 12.9 1.5 C 166.8 236.4 163.1 239.9 161.8 239.6 z"></path><path class="st6" d="M 79 261.8 c 2.1 7.2 7.3 11.5 11.8 9.5 c 4.4 -2 6.4 -9.4 4.3 -16.6 c -2.1 -7.2 -7.3 -11.5 -11.8 -9.5 C 78.9 247.1 76.9 254.5 79 261.8 z"></path><g><path class="st8" d="M 88.5 257.2 c 0 0 0.1 0 0.1 0 c 0.6 -0.1 1 -0.6 1 -1.2 c 0 -0.2 -0.4 -3.9 -3 -5.7 c -1.4 -1 -3.1 -1.2 -5.1 -0.7 c -0.6 0.2 -0.9 0.7 -0.8 1.3 c 0.2 0.6 0.7 0.9 1.3 0.8 c 1.4 -0.4 2.4 -0.2 3.3 0.4 c 1.8 1.2 2.1 4.1 2.1 4.1 C 87.5 256.8 87.9 257.2 88.5 257.2 z"></path></g><path class="st8" d="M 85.6 258.9 c -0.1 1.6 0.7 2.9 1.8 3 c 1.1 0.1 2.1 -1.2 2.2 -2.8 c 0.1 -1.6 -0.7 -2.9 -1.8 -3 C 86.6 256 85.7 257.3 85.6 258.9 z"></path><ellipse transform="matrix(0.2,-1,1,0.2,-108.9,385.3)" class="st6" cx="177.5" cy="258.2" rx="13.7" ry="8.6"></ellipse><g><path class="st8" d="M 176 257.2 c 0.5 0 1 -0.4 1.1 -1 c 0 0 0.3 -2.9 2.1 -4.2 c 0.9 -0.6 1.9 -0.7 3.3 -0.4 c 0.6 0.1 1.2 -0.2 1.3 -0.8 c 0.1 -0.6 -0.2 -1.2 -0.8 -1.3 c -2 -0.5 -3.7 -0.3 -5.1 0.7 c -2.6 1.8 -3 5.6 -3 5.7 c -0.1 0.6 0.4 1.1 1 1.2 C 176 257.2 176 257.2 176 257.2 z"></path></g><path class="st8" d="M 179 258.9 c 0.1 1.6 -0.7 2.9 -1.8 3 c -1.1 0.1 -2.1 -1.2 -2.2 -2.8 c -0.1 -1.6 0.7 -2.9 1.8 -3 C 177.9 256 178.9 257.3 179 258.9 z"></path><g><path class="st8" d="M 133.2 274.5 c 4.7 0 8.2 -3.3 8.3 -3.4 c 0.5 -0.5 0.6 -1.3 0 -1.9 c -0.5 -0.5 -1.3 -0.6 -1.9 -0.1 c 0 0 -3.4 3.1 -7.3 2.6 c -4 -0.5 -5.8 -2.4 -5.9 -2.5 c -0.5 -0.6 -1.3 -0.6 -1.9 -0.2 c -0.6 0.5 -0.6 1.3 -0.2 1.9 c 0.1 0.1 2.4 2.8 7.6 3.5 C 132.4 274.5 132.8 274.5 133.2 274.5 z"></path></g><path class="st10" d="M 95.9 210.4 c 0 0 6.3 34.1 -4.9 47.8 C 90.9 258.2 83 220.7 95.9 210.4 z"></path><path class="st10" d="M 170.1 210.4 c 0 0 -6.3 34.1 4.9 47.8 C 175.1 258.2 183 220.7 170.1 210.4 z"></path><path class="st10" d="M 175.1 223.3 c 1.6 0.5 3.2 -0.6 3.3 -2.2 c 0.7 -10.1 -0.7 -43.1 -47.1 -43.9 c -47.9 -0.8 -45.5 35.2 -44.1 44.2 c 0.2 1.2 1.3 2 2.5 1.8 c 4.5 -0.8 14.8 -3.8 19.1 -15.8 c 16.9 9.2 34 8.8 51.1 -0.9 C 159.9 206.5 164.6 220 175.1 223.3 z"></path><path class="st11" d="M 157.2 312.6 l 25.4 18 l -11.6 7 l -14.6 19 l -17.8 -25.5 C 138.6 331.1 159.5 328.6 157.2 312.6 z"></path><path class="st11" d="M 107.2 311.9 l -21.6 16 l 5.1 9.6 l 29.6 20.3 l 18.3 -26.7 C 138.6 331.1 106.3 330 107.2 311.9 z"></path><path class="st12" d="M 24.5 358 C 38.3 343.9 79 335.1 79 335.1 l 1.6 61.6 l -5.3 105.3 H 11.8 C 11.8 502.1 10.7 372.2 24.5 358 z"></path><path class="st12" d="M 40.1 349.1 l 51.4 -23.2 c 0 0 19.1 13.6 29.3 56.2 c 12.5 52.5 15 119.8 12.3 119.8 l -92.9 0.1 l 1.5 -81.2 L 40.1 349.1 z"></path><path class="st12" d="M 225.9 465.9 c -4.3 25.7 -7.4 36.1 -7.4 36.1 l -26.5 0 c 2 -39.8 -1.4 -99.4 -1.4 -99.4 s -0.8 -65.9 -11.8 -72.1 l 33.7 13.1 C 212.5 343.7 232 429.3 225.9 465.9 z"></path><path class="st12" d="M 249 390.9 c 1.1 12.6 17 86.7 17 111.1 l -47.4 0 c -10.8 -20.8 -6 -53.5 -6 -53.5 V 343.7 C 212.5 343.7 246.1 357.8 249 390.9 z"></path><path class="st13" d="M 75.9 469 c 0 0 0 -59.2 0 -76"></path><path class="st13" d="M 229.8 471.7 c 0 0 -8.7 -69.6 -17.4 -84.1"></path><g><g><path class="st14" d="M 104.5 311.4 L 104.5 311.4 c -6.2 4.5 -11.8 10.3 -10.9 18.6 c 0.7 6.4 3.7 12.2 4.1 18.8 c 0.7 12.9 -3.7 25.3 -5.1 37.9"></path></g><g><path class="st14" d="M 96.3 341.8 c 7.7 12.5 21.4 22.5 19.2 38.9"></path></g><path class="st15" d="M 98 392.8 l 13 43.2 c 3.2 9.3 5.7 14.3 17.3 11.1 c 0.4 1.6 0.7 3.3 1 4.9 l -1.8 0.5 c -8.5 2.6 -17.6 -2.2 -20.1 -10.7 l -15.6 -51.8 C 89.2 381.6 95.4 384.5 98 392.8 z"></path><path class="st10" d="M 133.8 445.4 l -6.3 1.1 c -1.8 0.3 -2.9 2 -2.6 3.8 l 0.2 0.9 c 0.3 1.8 2 2.9 3.8 2.6 l 6.3 -1.1 c 1.8 -0.3 2.9 -2 2.6 -3.8 l -0.2 -0.9 C 137.3 446.3 135.6 445.1 133.8 445.4 z"></path><path class="st15" d="M 112.9 389.2 l -6.4 44.7 c -1.7 9.6 -3.5 15 -15.5 13.5 c -0.1 1.7 -0.2 3.4 -0.2 5 l 1.9 0.3 c 8.8 1.3 17 -4.8 18.3 -13.6 l 7.7 -53.6 C 119.8 376.8 114.1 380.5 112.9 389.2 z"></path><path class="st10" d="M 85.2 446.6 l 6.4 0.2 c 1.8 0.1 3.2 1.6 3.2 3.4 l 0 0.9 c -0.1 1.8 -1.6 3.2 -3.4 3.2 L 85 454 c -1.8 -0.1 -3.2 -1.6 -3.2 -3.4 l 0 -0.9 C 81.9 447.9 83.4 446.5 85.2 446.6 z"></path><path class="st10" d="M 94.9 389.6 l -3.2 0.4 c -1.7 0.2 -3.2 -0.9 -3.5 -2.6 l -0.2 -1.7 c -0.2 -1.7 0.9 -3.2 2.6 -3.5 l 3.2 -0.4 c 1.7 -0.2 3.2 0.9 3.5 2.6 l 0.2 1.7 C 97.7 387.8 96.5 389.3 94.9 389.6 z"></path><path class="st10" d="M 117.4 386.7 l -3.3 -0.2 c -1.7 -0.1 -3 -1.6 -2.9 -3.3 l 0.1 -1.7 c 0.1 -1.7 1.6 -3 3.3 -2.9 l 3.3 0.2 c 1.7 0.1 3 1.6 2.9 3.3 l -0.1 1.7 C 120.6 385.5 119.1 386.8 117.4 386.7 z"></path></g><g><g><path class="st14" d="M 196.6 413.6 c 0.2 3.3 -5.5 4.2 -5.7 1 l 0 0 c -1.5 -21.4 -1.2 -43.2 -4.3 -64.5 c -2 -14 -9.8 -35 -27.7 -38.1"></path></g><g><ellipse transform="matrix(1,-6,6,1,-24.9,12.2)" class="st10" cx="191" cy="422.4" rx="15.4" ry="15.4"></ellipse><ellipse transform="matrix(1,-9.9,9.9,1,-40.4,20.8)" class="st17" cx="190.7" cy="419.1" rx="11.9" ry="11.9"></ellipse><ellipse transform="matrix(1,-6.7,6.7,1,-27.3,13.6)" class="st10" cx="189.9" cy="414.5" rx="11.9" ry="11.9"></ellipse></g></g><path class="st12" d="M 118.5 282.7 h 29.1 c 0 0 -2.2 12.5 -14.2 12.5 C 121.5 295.2 118.5 282.7 118.5 282.7 z"></path><g><g></g><g></g><g></g><g></g></g><path class="st6" d="M 361.5 349.9 L 339.7 378 c -12 9.8 -20.4 19 -31.2 10.1 c -4.8 -4 -6.7 -11.3 -6.4 -15.2 l 0.8 -12.2 l 10.6 -33 c 0 0 5.2 1 4 11.7 c -0.5 4.7 -3.4 6.5 -2.2 9.6 c 2.1 -0.9 4.2 -1.9 6.3 -3.3 l 28.1 -31 c 1.9 -2.7 6.5 -0.4 4.6 2.3 l -15.9 24.1 l 20.8 -25.8 c 2.2 -2.5 8.4 -2.4 5.2 4.5 l -6.4 10.9 l 1.7 -1.6 c 2.3 -2.4 5.9 1 3.5 3.4 l -12.3 19.4 l 7.7 -7.3 C 360.9 342.2 365 344.7 361.5 349.9 z"></path><g class="st24"><path class="st12" d="M 31.4 314.5 l -16.6 -5.2 c -1.1 -0.3 -1.7 -1.5 -1.4 -2.6 l 5.2 -16.6 c 0.3 -1.1 1.5 -1.7 2.6 -1.4 l 16.6 5.2 c 1.1 0.3 1.7 1.5 1.4 2.6 L 34 313.2 C 33.6 314.2 32.5 314.9 31.4 314.5 z M 18 306 l 12.7 4 l 4 -12.7 l -12.7 -4 L 18 306 z"></path></g><path class="st25" d="M 341.5 479.7 c 3.1 0 63.7 0 63.7 0"></path><path class="st25" d="M 82.6 145.3 c 3.1 0 63.7 0 63.7 0"></path><path class="st26" d="M 272.8 336.5 c 0 2.2 -1.8 4 -4 4 s -4 -1.8 -4 -4 c 0 -2.2 1.8 -4 4 -4 S 272.8 334.3 272.8 336.5 z"></path><path class="st26" d="M 24 181.5 c 0 2.2 -1.8 4 -4 4 s -4 -1.8 -4 -4 c 0 -2.2 1.8 -4 4 -4 S 24 179.3 24 181.5 z"></path></svg>